<svg width="512" height="512" viewBox="0 0 512 512" fill="none" xmlns="http://www.w3.org/2000/svg">
<g clip-path="url(#clip0_51_12)">
<rect width="512" height="512" fill="white"/>
<path d="M0 0H512V512H0V0Z" fill="url(#paint0_radial_51_12)"/>
<g filter="url(#filter0_d_51_12)">
<line x1="122.112" y1="282.518" x2="255.362" y2="118.518" stroke="#2B3B47"/>
<line y1="-0.5" x2="211.309" y2="-0.5" transform="matrix(-0.630593 -0.776114 -0.776114 0.630593 389 282.833)" stroke="#2B3B47"/>
<g filter="url(#filter1_d_51_12)">
<circle cx="255.75" cy="125.667" r="13.6667" fill="#2B3B47"/>
</g>
</g>
<g filter="url(#filter2_d_51_12)">
<rect x="20.5" y="273.5" width="470.189" height="125.417" rx="3.5" fill="#F5F5F5" stroke="#2B3B47"/>
<path d="M84.2031 360.844L95.5312 309.125H102.289L105.961 313.539L93.8906 366H86.4297L84.2031 360.844ZM81.1953 309.125L90.7656 361.234L88.3047 366H79.6719L67.6016 309.125H81.1953ZM112.172 360.961L121.664 309.125H135.219L123.148 366H114.555L112.172 360.961ZM107.172 309.125L118.773 361.156L116.43 366H108.969L96.625 313.461L100.453 309.125H107.172ZM163.305 346.703H149.164V336.117H163.305C165.232 336.117 166.794 335.792 167.992 335.141C169.19 334.49 170.062 333.591 170.609 332.445C171.182 331.273 171.469 329.958 171.469 328.5C171.469 326.938 171.182 325.492 170.609 324.164C170.062 322.836 169.19 321.768 167.992 320.961C166.794 320.128 165.232 319.711 163.305 319.711H154.32V366H140.609V309.125H163.305C167.862 309.125 171.781 309.958 175.062 311.625C178.37 313.292 180.909 315.583 182.68 318.5C184.451 321.391 185.336 324.698 185.336 328.422C185.336 332.094 184.451 335.297 182.68 338.031C180.909 340.766 178.37 342.901 175.062 344.438C171.781 345.948 167.862 346.703 163.305 346.703ZM212.641 309.125H235.023C239.398 309.125 243.201 309.776 246.43 311.078C249.659 312.38 252.146 314.307 253.891 316.859C255.661 319.411 256.547 322.562 256.547 326.312C256.547 329.568 256.039 332.289 255.023 334.477C254.008 336.664 252.589 338.474 250.766 339.906C248.969 341.312 246.872 342.471 244.477 343.383L239.984 345.922H221.195L221.117 335.336H235.023C236.768 335.336 238.214 335.023 239.359 334.398C240.505 333.773 241.365 332.888 241.938 331.742C242.536 330.57 242.836 329.177 242.836 327.562C242.836 325.922 242.536 324.516 241.938 323.344C241.339 322.172 240.453 321.273 239.281 320.648C238.135 320.023 236.716 319.711 235.023 319.711H226.352V366H212.641V309.125ZM243.773 366L231.195 340.844L245.727 340.766L258.461 365.414V366H243.773ZM284.672 366.781C281.234 366.781 278.161 366.247 275.453 365.18C272.745 364.086 270.453 362.589 268.578 360.688C266.729 358.786 265.31 356.599 264.32 354.125C263.357 351.651 262.875 349.034 262.875 346.273V344.789C262.875 341.69 263.305 338.826 264.164 336.195C265.023 333.539 266.299 331.221 267.992 329.242C269.685 327.263 271.807 325.727 274.359 324.633C276.911 323.513 279.88 322.953 283.266 322.953C286.26 322.953 288.943 323.435 291.312 324.398C293.682 325.362 295.688 326.742 297.328 328.539C298.995 330.336 300.258 332.51 301.117 335.062C302.003 337.615 302.445 340.479 302.445 343.656V349.008H267.914V340.766H289.594V339.75C289.62 338.344 289.372 337.146 288.852 336.156C288.357 335.167 287.628 334.411 286.664 333.891C285.701 333.37 284.529 333.109 283.148 333.109C281.716 333.109 280.531 333.422 279.594 334.047C278.682 334.672 277.966 335.531 277.445 336.625C276.951 337.693 276.599 338.93 276.391 340.336C276.182 341.742 276.078 343.227 276.078 344.789V346.273C276.078 347.836 276.286 349.255 276.703 350.531C277.146 351.807 277.771 352.901 278.578 353.812C279.411 354.698 280.401 355.388 281.547 355.883C282.719 356.378 284.047 356.625 285.531 356.625C287.328 356.625 289.099 356.286 290.844 355.609C292.589 354.932 294.086 353.812 295.336 352.25L301.312 359.359C300.453 360.583 299.229 361.768 297.641 362.914C296.078 364.06 294.203 364.997 292.016 365.727C289.828 366.43 287.38 366.781 284.672 366.781ZM320.727 332.758V366H307.562V323.734H319.906L320.727 332.758ZM319.164 343.422L316.078 343.5C316.078 340.271 316.469 337.393 317.25 334.867C318.031 332.315 319.138 330.154 320.57 328.383C322.003 326.612 323.708 325.271 325.688 324.359C327.693 323.422 329.919 322.953 332.367 322.953C334.32 322.953 336.104 323.24 337.719 323.812C339.359 324.385 340.766 325.31 341.938 326.586C343.135 327.862 344.047 329.555 344.672 331.664C345.323 333.747 345.648 336.326 345.648 339.398V366H332.406V339.359C332.406 337.667 332.172 336.378 331.703 335.492C331.234 334.581 330.557 333.956 329.672 333.617C328.786 333.279 327.706 333.109 326.43 333.109C325.076 333.109 323.93 333.37 322.992 333.891C322.055 334.411 321.299 335.141 320.727 336.078C320.18 336.99 319.776 338.07 319.516 339.32C319.281 340.57 319.164 341.938 319.164 343.422ZM375.219 323.734V332.875H349.75V323.734H375.219ZM355.102 313.227H368.266V352.211C368.266 353.331 368.396 354.203 368.656 354.828C368.917 355.427 369.359 355.857 369.984 356.117C370.635 356.352 371.495 356.469 372.562 356.469C373.318 356.469 373.943 356.456 374.438 356.43C374.932 356.378 375.401 356.312 375.844 356.234V365.648C374.724 366.013 373.552 366.286 372.328 366.469C371.104 366.677 369.802 366.781 368.422 366.781C365.609 366.781 363.201 366.339 361.195 365.453C359.216 364.568 357.706 363.174 356.664 361.273C355.622 359.372 355.102 356.898 355.102 353.852V313.227ZM394.359 306V366H381.156V306H394.359ZM415.453 361.039L426.391 323.734H440.531L423.539 372.289C423.174 373.357 422.693 374.503 422.094 375.727C421.495 376.977 420.674 378.161 419.633 379.281C418.591 380.401 417.25 381.312 415.609 382.016C413.995 382.719 411.99 383.07 409.594 383.07C408.318 383.07 407.38 383.005 406.781 382.875C406.208 382.771 405.323 382.576 404.125 382.289V372.875C404.464 372.875 404.75 372.875 404.984 372.875C405.245 372.875 405.531 372.875 405.844 372.875C407.25 372.875 408.37 372.732 409.203 372.445C410.062 372.159 410.714 371.742 411.156 371.195C411.625 370.648 411.99 369.984 412.25 369.203L415.453 361.039ZM412.68 323.734L421 353.305L422.445 367.25H413.617L398.578 323.734H412.68Z" fill="#2B3B47"/>
</g>
</g>
<defs>
<filter id="filter0_d_51_12" x="117.724" y="112" width="276.052" height="178.833" filterUnits="userSpaceOnUse" color-interpolation-filters="sRGB">
<feFlood flood-opacity="0" result="BackgroundImageFix"/>
<feColorMatrix in="SourceAlpha" type="matrix" values="0 0 0 0 0 0 0 0 0 0 0 0 0 0 0 0 0 0 127 0" result="hardAlpha"/>
<feOffset dy="4"/>
<feGaussianBlur stdDeviation="2"/>
<feComposite in2="hardAlpha" operator="out"/>
<feColorMatrix type="matrix" values="0 0 0 0 0 0 0 0 0 0 0 0 0 0 0 0 0 0 0.25 0"/>
<feBlend mode="normal" in2="BackgroundImageFix" result="effect1_dropShadow_51_12"/>
<feBlend mode="normal" in="SourceGraphic" in2="effect1_dropShadow_51_12" result="shape"/>
</filter>
<filter id="filter1_d_51_12" x="238.083" y="110" width="35.3333" height="35.3333" filterUnits="userSpaceOnUse" color-interpolation-filters="sRGB">
<feFlood flood-opacity="0" result="BackgroundImageFix"/>
<feColorMatrix in="SourceAlpha" type="matrix" values="0 0 0 0 0 0 0 0 0 0 0 0 0 0 0 0 0 0 127 0" result="hardAlpha"/>
<feOffset dy="2"/>
<feGaussianBlur stdDeviation="2"/>
<feComposite in2="hardAlpha" operator="out"/>
<feColorMatrix type="matrix" values="0 0 0 0 0 0 0 0 0 0 0 0 0 0 0 0 0 0 0.25 0"/>
<feBlend mode="normal" in2="BackgroundImageFix" result="effect1_dropShadow_51_12"/>
<feBlend mode="normal" in="SourceGraphic" in2="effect1_dropShadow_51_12" result="shape"/>
</filter>
<filter id="filter2_d_51_12" x="16" y="273" width="479.189" height="134.417" filterUnits="userSpaceOnUse" color-interpolation-filters="sRGB">
<feFlood flood-opacity="0" result="BackgroundImageFix"/>
<feColorMatrix in="SourceAlpha" type="matrix" values="0 0 0 0 0 0 0 0 0 0 0 0 0 0 0 0 0 0 127 0" result="hardAlpha"/>
<feOffset dy="4"/>
<feGaussianBlur stdDeviation="2"/>
<feComposite in2="hardAlpha" operator="out"/>
<feColorMatrix type="matrix" values="0 0 0 0 0 0 0 0 0 0 0 0 0 0 0 0 0 0 0.25 0"/>
<feBlend mode="normal" in2="BackgroundImageFix" result="effect1_dropShadow_51_12"/>
<feBlend mode="normal" in="SourceGraphic" in2="effect1_dropShadow_51_12" result="shape"/>
</filter>
<radialGradient id="paint0_radial_51_12" cx="0" cy="0" r="1" gradientUnits="userSpaceOnUse" gradientTransform="translate(256 256) rotate(90) scale(256)">
<stop stop-color="#FEC500"/>
<stop offset="1" stop-color="#FCC300"/>
</radialGradient>
<clipPath id="clip0_51_12">
<rect width="512" height="512" fill="white"/>
</clipPath>
</defs>
</svg>
