<?xml version="1.0" encoding="UTF-8" standalone="no"?>
<!-- Created with Inkscape (http://www.inkscape.org/) -->

<svg
   width="192.58949mm"
   height="44.067142mm"
   viewBox="0 0 192.58949 44.067142"
   version="1.1"
   id="svg1"
   xml:space="preserve"
   inkscape:version="1.4.2 (ebf0e94, 2025-05-08)"
   sodipodi:docname="servicebooking.svg"
   xmlns:inkscape="http://www.inkscape.org/namespaces/inkscape"
   xmlns:sodipodi="http://sodipodi.sourceforge.net/DTD/sodipodi-0.dtd"
   xmlns="http://www.w3.org/2000/svg"
   xmlns:svg="http://www.w3.org/2000/svg"><sodipodi:namedview
     id="namedview1"
     pagecolor="#ffffff"
     bordercolor="#000000"
     borderopacity="0.25"
     inkscape:showpageshadow="2"
     inkscape:pageopacity="0.0"
     inkscape:pagecheckerboard="0"
     inkscape:deskcolor="#d1d1d1"
     inkscape:document-units="mm"
     inkscape:zoom="0.66635802"
     inkscape:cx="396.93377"
     inkscape:cy="561.25984"
     inkscape:window-width="1920"
     inkscape:window-height="956"
     inkscape:window-x="0"
     inkscape:window-y="0"
     inkscape:window-maximized="1"
     inkscape:current-layer="layer1"><inkscape:page
       x="0"
       y="0"
       width="192.58949"
       height="44.067142"
       id="page2"
       margin="0"
       bleed="0" /></sodipodi:namedview><defs
     id="defs1" /><g
     inkscape:label="Layer 1"
     inkscape:groupmode="layer"
     id="layer1"
     transform="translate(-10.74917,-71.857429)"><text
       xml:space="preserve"
       style="font-size:21.0257px;font-family:'Noto Sans Buhid';-inkscape-font-specification:'Noto Sans Buhid';text-align:center;letter-spacing:0.157693px;word-spacing:0.157693px;writing-mode:lr-tb;direction:rtl;text-anchor:middle;fill:#000000;stroke-width:5.96006;stroke-linecap:round;paint-order:markers fill stroke"
       x="132.44058"
       y="99.655617"
       id="text1"
       inkscape:export-filename="service.png"
       inkscape:export-xdpi="96"
       inkscape:export-ydpi="96"><tspan
         sodipodi:role="line"
         id="tspan1"
         x="132.51942"
         y="99.655617"
         style="font-style:normal;font-variant:normal;font-weight:900;font-stretch:normal;font-family:'Roboto Slab';-inkscape-font-specification:'Roboto Slab Heavy';stroke-width:5.96006">WpBookingly</tspan></text><path
       style="fill:#d0641d;fill-opacity:1;stroke-width:0.651571"
       d="m 15.941308,115.79074 c -1.074271,-0.25644 -2.636809,-1.17736 -3.397094,-2.00217 -0.38717,-0.42003 -0.94945,-1.28188 -1.249498,-1.91523 l -0.545547,-1.15153 V 95.637276 80.552729 l 0.545547,-1.151527 c 0.755588,-1.594882 1.737928,-2.601637 3.284216,-3.365858 1.201659,-0.593893 1.403666,-0.63792 3.251116,-0.708641 l 1.969841,-0.0754 V 74.07585 c 0,-0.99403 0.06424,-1.250117 0.416061,-1.659153 0.345482,-0.401648 0.552727,-0.4837 1.221695,-0.4837 0.668961,0 0.876206,0.08205 1.221688,0.4837 0.353438,0.410893 0.416061,0.663885 0.416061,1.680844 v 1.19715 h 3.965074 3.965081 v -1.19715 c 0,-1.016959 0.06262,-1.269951 0.41606,-1.680844 0.345483,-0.401648 0.552728,-0.4837 1.221689,-0.4837 0.668961,0 0.876212,0.08205 1.221688,0.4837 0.353438,0.410893 0.416061,0.663885 0.416061,1.680844 v 1.19715 h 3.965081 3.965081 v -1.04293 c 0,-1.203998 0.301364,-1.906496 0.94335,-2.199005 0.571584,-0.260433 0.989606,-0.260433 1.56119,0 0.638884,0.291095 0.94335,0.993827 0.94335,2.177314 v 1.021233 l 1.969848,0.0754 c 1.84745,0.07072 2.049457,0.114748 3.251116,0.708641 1.546288,0.764221 2.528622,1.770976 3.284216,3.365858 l 0.545547,1.151527 0.05369,5.843318 c 0.03916,4.26607 -0.0026,5.978365 -0.153582,6.343636 -0.220524,0.532392 -0.940646,1.001249 -1.53783,1.001249 -0.499585,0 -1.306686,-0.441094 -1.486669,-0.812496 -0.08212,-0.16944 -0.188487,-2.912797 -0.23639,-6.096351 l -0.08709,-5.78828 -0.462478,-0.698393 C 50.028082,79.180541 49.300089,78.848729 47.34337,78.770136 l -1.684245,-0.06765 v 1.062985 c 0,0.584635 -0.110545,1.276753 -0.245662,1.538039 -0.5933,1.147318 -2.363266,1.147318 -2.956567,0 -0.135116,-0.261286 -0.245661,-0.94438 -0.245661,-1.51799 v -1.04293 h -3.965081 -3.965081 v 1.19715 c 0,1.016965 -0.06262,1.26995 -0.416061,1.68085 -0.345475,0.401641 -0.552727,0.483694 -1.221688,0.483694 -0.668961,0 -0.876206,-0.08205 -1.221689,-0.483694 -0.353438,-0.4109 -0.41606,-0.663885 -0.41606,-1.68085 V 78.74259 H 27.040494 23.07542 v 1.19715 c 0,1.016965 -0.06262,1.26995 -0.416061,1.68085 -0.345482,0.401641 -0.552727,0.483694 -1.221688,0.483694 -0.668968,0 -0.876213,-0.08205 -1.221695,-0.483694 -0.354858,-0.412555 -0.416061,-0.662745 -0.416061,-1.700899 v -1.217205 l -1.701263,0.06834 c -1.487634,0.05975 -1.788047,0.125753 -2.392294,0.525629 -0.380068,0.251513 -0.875131,0.753437 -1.100145,1.115385 l -0.409121,0.658079 v 14.567363 14.567358 l 0.409121,0.65809 c 0.225014,0.36194 0.723433,0.86619 1.107592,1.12056 l 0.698477,0.46248 7.570378,0.0862 7.570384,0.0862 0.415846,0.48369 c 0.564032,0.65607 0.563993,1.65212 -9.8e-5,2.30811 l -0.415937,0.4837 -7.471117,0.0284 c -4.109117,0.0156 -7.772299,-0.0435 -8.140404,-0.13133 z m 26.591601,0.0387 c -3.678201,-0.78455 -6.648699,-3.30827 -7.937721,-6.74383 -0.50685,-1.35088 -0.550394,-1.63058 -0.550394,-3.53566 0,-1.90509 0.04352,-2.18479 0.550394,-3.53567 1.084455,-2.890345 3.344943,-5.150826 6.23529,-6.235287 1.350882,-0.50685 1.630575,-0.550395 3.535664,-0.550395 1.905088,0 2.184781,0.04352 3.535657,0.550395 2.890354,1.084461 5.150835,3.344942 6.235296,6.235287 0.50685,1.35088 0.550388,1.63058 0.550388,3.53567 0,1.90508 -0.04353,2.18478 -0.550388,3.53566 -1.503349,4.00679 -5.133536,6.65572 -9.339965,6.81532 -0.900764,0.0342 -1.919664,0.002 -2.264221,-0.0715 z m 3.848801,-3.63841 c 2.231708,-0.68931 3.93621,-2.39381 4.625513,-4.62551 1.129042,-3.65541 -0.934039,-7.51648 -4.625513,-8.656655 -3.655409,-1.129042 -7.516473,0.934039 -8.65665,4.625505 -1.630575,5.2792 3.377462,10.28723 8.65665,8.65666 z m -3.198827,-5.45783 c -0.448704,-0.44871 -0.45449,-0.48589 -0.45449,-2.9211 0,-2.3589 0.01818,-2.48772 0.41606,-2.9503 0.342707,-0.39842 0.554611,-0.4837 1.201972,-0.4837 1.202741,0 1.549142,0.44224 1.657466,2.116 l 0.0862,1.3319 0.822406,0.0945 c 1.123516,0.12912 1.591122,0.61378 1.591122,1.64915 0,0.64736 -0.08528,0.85927 -0.4837,1.20197 -0.449649,0.38678 -0.620933,0.41607 -2.433114,0.41607 -1.876413,0 -1.96644,-0.017 -2.403918,-0.4545 z m -22.45947,-0.2256 c -0.963941,-0.40995 -1.236395,-1.86765 -0.507463,-2.71509 0.345482,-0.40164 0.552727,-0.48369 1.221695,-0.48369 1.030472,0 1.637749,0.60727 1.637749,1.63775 0,1.20513 -1.245321,2.03166 -2.351981,1.56103 z m 7.370404,-0.0777 c -1.49456,-0.82837 -0.869287,-3.20732 0.842995,-3.20732 0.873502,0 1.723945,0.84222 1.723945,1.70728 0,1.29424 -1.430275,2.13005 -2.56694,1.50004 z m -7.839431,-7.799254 c -0.347711,-0.34771 -0.454497,-0.625722 -0.454497,-1.183258 0,-1.014743 0.623013,-1.637749 1.637756,-1.637749 1.014743,0 1.637749,0.623006 1.637749,1.637749 0,1.014743 -0.623006,1.637749 -1.637749,1.637749 -0.557536,0 -0.835548,-0.10678 -1.183259,-0.454491 z m 7.528377,0.03844 c -0.401647,-0.345476 -0.4837,-0.552727 -0.4837,-1.221688 0,-1.030472 0.607277,-1.637749 1.637749,-1.637749 1.030472,0 1.637749,0.607277 1.637749,1.637749 0,1.030472 -0.607277,1.637749 -1.637749,1.637749 -0.460087,0 -0.822073,-0.130504 -1.154049,-0.416061 z m -7.05935,-7.159836 c -0.963941,-0.409949 -1.236395,-1.867652 -0.507463,-2.715091 0.345482,-0.401641 0.552727,-0.4837 1.221695,-0.4837 1.030472,0 1.637749,0.607283 1.637749,1.637755 0,1.205142 -1.245321,2.031672 -2.351981,1.561036 z m 7.370404,-0.07767 c -1.49456,-0.828368 -0.869287,-3.20732 0.842995,-3.20732 0.873502,0 1.723945,0.84222 1.723945,1.707278 0,1.294243 -1.430275,2.130052 -2.56694,1.500042 z m 7.627937,0.07767 c -0.963947,-0.409949 -1.236394,-1.867652 -0.507463,-2.715091 0.345483,-0.401641 0.552728,-0.4837 1.221695,-0.4837 1.030466,0 1.637749,0.607283 1.637749,1.637755 0,1.205142 -1.245321,2.031672 -2.351981,1.561036 z m 7.370404,-0.07767 c -1.494559,-0.828368 -0.869286,-3.20732 0.842996,-3.20732 0.873502,0 1.723945,0.84222 1.723945,1.707278 0,1.294243 -1.430276,2.130052 -2.566941,1.500042 z"
       id="path1" /></g></svg>
