<?xml version="1.0" encoding="UTF-8" standalone="no"?>
<!-- Created with Inkscape (http://www.inkscape.org/) -->

<svg
   width="166.9502mm"
   height="134.82126mm"
   viewBox="0 0 166.95019 134.82126"
   version="1.1"
   id="svg1"
   xml:space="preserve"
   sodipodi:docname="g11.svg"
   xmlns:inkscape="http://www.inkscape.org/namespaces/inkscape"
   xmlns:sodipodi="http://sodipodi.sourceforge.net/DTD/sodipodi-0.dtd"
   xmlns="http://www.w3.org/2000/svg"
   xmlns:svg="http://www.w3.org/2000/svg"><sodipodi:namedview
     id="namedview1"
     pagecolor="#ffffff"
     bordercolor="#000000"
     borderopacity="0.25"
     inkscape:showpageshadow="2"
     inkscape:pageopacity="0.0"
     inkscape:pagecheckerboard="0"
     inkscape:deskcolor="#d1d1d1"
     inkscape:document-units="mm"
     showgrid="false"><inkscape:page
       x="0"
       y="0"
       width="166.9502"
       height="134.82126"
       id="page2"
       margin="0"
       bleed="0" /></sodipodi:namedview><defs
     id="defs1" /><g
     id="g2"
     transform="translate(-0.58249487)"><path
       style="fill:#000000;stroke-width:1.9664"
       d="M 13.289837,106.56207 C 13.099096,106.37133 12.942984,90.947816 12.942984,72.287676 V 38.360129 l 4.552404,-1.61593 c 2.503833,-0.88875 7.280622,-2.57261 10.61508,-3.74191 l 6.062675,-2.12599 -1.735069,-3.75531 c -2.308333,-4.99612 -3.04526,-8.14137 -2.697346,-11.51244 0.605611,-5.86773 4.043167,-10.97821 9.302491,-13.82965 3.101184,-1.68138 3.58653,-1.78615 8.237962,-1.77856 5.876241,0.01 8.709189,1.12389 12.503234,4.91794 4.95058,4.95058 6.33272,11.26365 3.99033,18.22625 -0.72202,2.14614 -1.27511,3.93499 -1.2291,3.97523 0.39401,0.34451 26.89348,11.11277 27.34729,11.11277 0.45268,0 14.916785,-5.3356 20.341605,-7.50373 0.61438,-0.24554 0.78144,-1.33465 0.78522,-5.11871 0.004,-4.24169 0.17442,-5.13001 1.44856,-7.55611 1.86605,-3.55342 4.91788,-6.48413 8.60839,-8.26677 2.45104,-1.18395 3.64341,-1.42338 7.10734,-1.42725 3.47197,-0.004 4.7001,0.24059 7.40576,1.47417 8.25816,3.76514 12.32174,12.77709 9.52074,21.11453 -1.58124,4.70669 -7.61626,16.19697 -11.83377,22.53066 l -3.53191,5.3041 -0.26013,16.896487 -0.26013,16.8965 -19.46418,7.23982 -19.464175,7.239804 -2.90767,-1.06146 c -1.59923,-0.58379 -10.07459,-3.73592 -18.83414,-7.004744 l -15.926456,-5.94327 -18.932031,6.90765 c -10.4126,3.799224 -19.185658,6.918244 -19.49564,6.931204 -0.310003,0.0138 -0.719721,-0.13254 -0.910481,-0.32334 z m 96.294343,-8.843874 17.81944,-6.62563 V 75.299646 59.506739 l -2.19001,-3.22318 c -3.71979,-5.47463 -8.91995,-14.4972 -11.08892,-19.23993 -1.13805,-2.4885 -2.22624,-4.52671 -2.41818,-4.52934 -0.19192,-0.002 -4.97471,1.75113 -10.62837,3.89728 -5.653655,2.14612 -10.671115,3.90206 -11.149895,3.90206 -0.47878,0 -5.99747,-2.12798 -12.26376,-4.72885 -6.26628,-2.60088 -12.45685,-5.15371 -13.75679,-5.67298 l -2.36355,-0.9441 -2.839224,5.25053 c -3.585802,6.63124 -10.689075,17.54148 -11.420614,17.54148 -0.605748,0 -5.685127,-7.64555 -9.591747,-14.43766 -1.357836,-2.36076 -2.74096,-4.27986 -3.073615,-4.26466 -0.332636,0.0157 -4.819028,1.49458 -9.969767,3.28754 l -9.364963,3.25995 -0.134108,32.351327 c -0.07374,17.79323 0.0079,32.351334 0.180908,32.351334 0.17324,0 8.427857,-2.94726 18.343666,-6.549444 9.91579,-3.6022 18.496967,-6.54177 19.069286,-6.53237 0.5723,0.01 9.117828,3.06414 18.990058,6.78834 9.87224,3.724174 18.41776,6.671924 18.99006,6.550524 0.5723,-0.12133 9.05931,-3.20228 18.859975,-6.846394 z M 44.575321,74.867436 c -2.614757,-0.80445 -3.445638,-1.55611 -2.626063,-2.37566 0.331219,-0.33122 1.44943,-0.20081 3.206779,0.374 1.923922,0.62929 3.511846,0.78694 5.533341,0.54934 2.545087,-0.29913 2.835111,-0.23328 2.835111,0.64381 0,1.67359 -4.744246,2.10222 -8.949168,0.80851 z m -12.971353,-1.51631 c -0.590922,-1.00152 -1.162672,-1.82096 -1.270568,-1.82096 -0.107955,0 -0.962728,0.46737 -1.899637,1.03861 -0.936909,0.57124 -1.996128,1.03948 -2.353816,1.04056 -1.288677,0.004 -0.61263,-1.49733 1.170616,-2.59944 1.001525,-0.61898 1.820961,-1.24579 1.820961,-1.39292 0,-0.14708 -0.400299,-0.94516 -0.889578,-1.77343 -0.721136,-1.2208 -0.763768,-1.63003 -0.225113,-2.16137 0.669873,-0.66078 1.298668,-0.14472 2.687592,2.20607 0.404842,0.68517 0.659608,0.6693 2.087645,-0.12998 3.274561,-1.833 4.486942,-0.28981 1.313277,1.67161 l -1.789755,1.10614 1.050626,1.78069 c 1.006795,1.7064 0.958205,2.8555 -0.120737,2.8555 -0.278913,0 -0.990592,-0.81944 -1.581513,-1.82098 z m 27.470124,0.43357 c -0.782409,-0.78241 -0.224228,-1.54095 2.003563,-2.72279 2.1579,-1.14478 4.49581,-3.41091 6.51038,-6.31054 0.68126,-0.98056 0.88699,-1.03745 1.42173,-0.3931 1.02441,1.23435 -1.79558,5.06901 -5.5921,7.60423 -3.35528,2.24059 -3.75676,2.40901 -4.343573,1.8222 z m 49.243088,-1.97548 c -1.73332,-0.75388 -3.28539,-3.09778 -3.28539,-4.96153 0,-1.94752 1.56928,-4.218827 3.46095,-5.009217 3.54982,-1.48321 7.46484,1.12002 7.46484,4.963617 0,2.36547 -1.18275,4.10294 -3.43308,5.04317 -2.08813,0.87249 -2.11901,0.87222 -4.20732,-0.036 z m 3.72632,-1.92907 c 2.56773,-1.16995 2.39446,-5.0595 -0.27464,-6.16509 -1.4107,-0.584327 -1.76641,-0.53974 -2.99821,0.37578 -2.00018,1.48661 -2.14156,3.86161 -0.3154,5.29806 1.62537,1.27851 1.80609,1.30325 3.58825,0.49125 z M 93.970175,58.605179 c -3.35607,-1.94514 -5.02188,-3.20809 -4.91172,-3.72382 0.23286,-1.08997 1.0015,-0.82353 6.47817,2.24566 3.20867,1.79819 4.812445,3.00037 4.812545,3.60744 2.2e-4,1.36458 -0.827625,1.08826 -6.378995,-2.12928 z m -22.03416,0.86441 c -0.62189,-1.00626 4.54987,-5.36728 7.26745,-6.12815 2.56951,-0.71943 5.21948,-0.36741 4.88089,0.64838 -0.11563,0.34701 -1.30225,0.78712 -2.63686,0.97802 -2.64689,0.37863 -5.1287,1.70447 -7.08149,3.78311 -1.39289,1.48267 -1.87049,1.62391 -2.42999,0.71864 z m 58.056605,-4.4646 c 3.77333,-5.69553 9.58874,-15.94372 11.54566,-20.34631 1.97052,-4.43314 2.22879,-5.46046 2.24065,-8.91277 0.0118,-3.25397 -0.233,-4.40386 -1.47012,-6.92325 -4.82624,-9.82875 -18.44199,-11.49297 -25.78439,-3.15156 -5.44371,6.18438 -4.78649,13.62892 2.32188,26.30049 3.28144,5.84962 9.08526,14.99238 9.51211,14.98442 0.19035,-0.004 0.92564,-0.8815 1.63421,-1.95102 z m -2.58899,-23.23775 v -4.4605 h -4.0985 c -2.99391,0 -4.27168,-0.20867 -4.74106,-0.77425 -0.86795,-1.04581 -0.19865,-1.24988 4.67736,-1.42603 l 3.90207,-0.14099 0.26013,-4.42233 c 0.20403,-3.4685 0.42848,-4.42234 1.04055,-4.42234 0.62281,0 0.81079,0.91948 0.93074,4.5524 l 0.15023,4.55242 h 4.44024 c 3.94821,0 4.42095,0.10088 4.26625,0.91049 -0.1459,0.76365 -0.86191,0.93478 -4.43978,1.06124 l -4.26581,0.15082 -0.15082,4.26582 c -0.12644,3.57786 -0.29761,4.29387 -1.06126,4.43977 -0.80984,0.15476 -0.91048,-0.31901 -0.91048,-4.2865 z m -76.88346,12.24121 c 4.471251,-6.9416 9.077005,-15.42949 10.818125,-19.93665 2.80759,-7.26784 1.86063,-12.66125 -3.092783,-17.61464 -4.437606,-4.43763 -10.401116,-5.83634 -16.305693,-3.82445 -5.474349,1.86531 -10.265651,8.44914 -10.266497,14.10744 -7.47e-4,4.82778 3.32618,12.43681 10.648332,24.3539 4.385477,7.13757 4.652729,7.54434 4.954611,7.5415 0.14571,-10e-4 1.605523,-2.08357 3.243905,-4.6271 z m -3.759278,-20.04535 v -4.46049 h -4.098501 c -2.993917,0 -4.271682,-0.20868 -4.74108,-0.77425 -0.867928,-1.04581 -0.198626,-1.24988 4.677388,-1.42603 l 3.902058,-0.141 0.260135,-4.42232 c 0.204033,-3.46851 0.428478,-4.42235 1.040558,-4.42235 0.622777,0 0.810784,0.91949 0.930735,4.55241 l 0.150232,4.55242 h 4.440241 c 3.948229,0 4.420951,0.10088 4.266254,0.91048 -0.145906,0.76365 -0.86191,0.93479 -4.439769,1.06124 l -4.265821,0.15083 -0.150823,4.26582 c -0.126439,3.57786 -0.297614,4.29386 -1.061264,4.43977 -0.809841,0.15475 -0.910481,-0.31901 -0.910481,-4.28651 z m 118.836518,-8.88284 c -0.36306,-1.4466 -0.74538,-1.6014 -1.67043,-0.67636 -0.48558,0.4856 -0.62432,-0.11661 -0.62432,-2.7097 v -3.33404 l 2.37025,2.3195 c 2.12511,2.0796 2.25551,2.33724 1.26092,2.49097 -0.71955,0.1113 -1.00396,0.43113 -0.80943,0.91048 0.16498,0.40646 0.44202,1.09019 0.61572,1.51942 0.17363,0.42924 0.0611,0.78042 -0.25023,0.78042 -0.31132,0 -0.71294,-0.58532 -0.89248,-1.30069 z"
       id="path2" /><text
       xml:space="preserve"
       style="font-size:25.4px;font-family:'Noto Sans Buhid';-inkscape-font-specification:'Noto Sans Buhid';text-align:center;writing-mode:lr-tb;direction:ltr;text-anchor:middle;fill:#000000;fill-opacity:1;stroke:none;stroke-width:1.165;stroke-linecap:square;paint-order:markers fill stroke"
       x="76.134689"
       y="128.72522"
       id="text1"><tspan
         id="tspan1"
         style="font-size:25.4px;fill:#000000;fill-opacity:1;stroke:none;stroke-width:1.165"
         x="76.134689"
         y="128.72522">Taxi Booking</tspan></text><g
       id="g1"
       transform="translate(-129.96489,-11.279104)"><path
         d="m 241.03067,85.84808 c -1.29775,0.0043 -2.57407,0.634453 -3.55472,1.799933 -0.84044,0.998782 -0.95724,1.423995 -0.81025,2.953632 0.1896,1.97283 0.97854,3.102201 2.69714,3.860788 1.42911,0.630832 1.80496,0.63211 3.29604,0.0085 3.95424,-1.652195 3.73944,-7.071998 -0.33357,-8.416191 -0.42706,-0.141027 -0.86206,-0.208346 -1.29464,-0.206854 z"
         style="fill:#ffffff;fill-opacity:1;stroke-width:2.48183;stroke-linecap:square;paint-order:markers fill stroke"
         id="path10" /><path
         d="m 195.65257,85.687347 c -1.33725,0 -3.32993,1.155978 -3.90261,2.263407 -1.28198,2.479123 -0.28081,5.417949 2.21605,6.505075 1.47374,0.641697 1.83149,0.640738 3.3819,-0.0064 v -0.0011 c 1.49734,-0.625634 2.78192,-2.524074 2.78192,-4.111784 0,-2.221396 -2.33728,-4.648987 -4.47726,-4.648987 z"
         style="fill:#ffffff;fill-opacity:1;stroke-width:2.48183;stroke-linecap:square;paint-order:markers fill stroke"
         id="path9" /><path
         d="m 218.55299,63.004901 c -13.32678,0 -17.29645,0.104812 -17.581,0.46456 -0.20216,0.25566 -1.25156,3.142528 -2.33166,6.414814 -1.0801,3.272286 -2.04053,6.158067 -2.13458,6.413706 -0.13571,0.368504 4.33135,0.465668 21.55955,0.465668 11.9521,0 21.82663,-0.09523 21.94267,-0.211328 0.1161,-0.116103 -0.79121,-3.211828 -2.01572,-6.879374 l -2.22597,-6.668003 z"
         style="fill:#ffffff;fill-opacity:1;stroke-width:2.48183;stroke-linecap:square;paint-order:markers fill stroke"
         id="path8" /><path
         d="m 218.35372,50.733418 c -6.47159,0 -7.62143,0.533945 -8.89398,4.129402 -0.31725,0.896376 -0.55974,0.98862 -3.24427,1.231881 -6.32174,0.572866 -9.28202,1.629976 -10.77868,3.850861 -0.43631,0.647449 -1.67279,3.56691 -2.74778,6.487458 -1.07498,2.920548 -2.00847,5.374214 -2.07515,5.451545 -0.0667,0.07754 -1.45352,0.192156 -3.08136,0.254297 -3.49627,0.133785 -4.91707,0.757586 -5.75648,2.526502 -0.74566,1.57152 -0.75676,2.137632 -0.0726,3.774915 0.63852,1.52821 2.53317,2.782716 4.20644,2.784122 1.41807,0.0016 1.41807,0.0043 0.4943,2.435132 -1.13008,2.97321 -1.41537,6.698062 -1.35189,17.645927 0.0498,8.58854 0.15466,10.40432 0.65503,11.34124 0.76799,1.43782 2.05104,2.58945 3.45565,3.10115 0.61355,0.22313 1.77733,0.32128 2.58596,0.21689 3.36555,-0.43418 5.40859,-3.06643 5.40859,-6.96744 v -2.11369 h 21.19627 21.19518 v 2.11369 c 0,6.23614 6.11761,9.31994 10.26346,5.17411 1.93753,-1.93755 2.09869,-3.22993 1.91442,-15.27136 -0.14444,-9.437852 -0.26126,-11.145457 -0.93353,-13.583699 -0.42291,-1.533898 -0.88545,-3.082325 -1.02712,-3.440241 -0.21426,-0.541571 -0.0479,-0.650537 0.99077,-0.651709 1.70955,-0.0019 3.60213,-1.242874 4.24608,-2.784122 0.67647,-1.618919 0.67167,-2.206719 -0.0285,-3.682438 -0.86298,-1.81853 -2.27144,-2.456265 -5.44273,-2.462656 -1.50232,-0.0021 -2.91584,-0.128245 -3.1408,-0.278518 -0.22498,-0.150188 -1.20907,-2.448234 -2.18635,-5.106965 -2.26771,-6.169379 -2.88783,-7.374398 -4.37377,-8.493266 -1.3024,-0.980652 -5.24156,-1.938787 -9.65798,-2.349258 -2.34928,-0.218337 -2.61525,-0.328049 -2.92613,-1.206574 -1.2714,-3.592857 -2.42235,-4.127186 -8.89289,-4.127186 z m 0.19919,12.271483 h 17.21328 l 2.22598,6.668003 c 1.22451,3.667547 2.13181,6.763271 2.01571,6.879374 -0.1161,0.116103 -9.99056,0.211328 -21.94267,0.211328 -17.22819,0 -21.69525,-0.09714 -21.55955,-0.465667 0.0942,-0.255639 1.05449,-3.141421 2.13459,-6.413707 1.08009,-3.272286 2.12949,-6.159153 2.33166,-6.414813 0.28455,-0.359791 4.25421,-0.46456 17.581,-0.46456 z m -22.90042,22.682446 c 2.13997,0 4.47726,2.427591 4.47726,4.648987 0,1.58771 -1.28459,3.48615 -2.78193,4.111784 v 0.0011 c -1.55041,0.647342 -1.90815,0.648301 -3.38189,0.0064 -2.49687,-1.087126 -3.49804,-4.025952 -2.21605,-6.505075 0.57267,-1.107429 2.56536,-2.263407 3.90261,-2.263407 z m 45.3781,0.160626 c 0.43258,-0.0014 0.86757,0.06604 1.29464,0.206855 4.07301,1.344193 4.28781,6.763996 0.33356,8.416191 -1.49108,0.623311 -1.86693,0.622033 -3.29604,-0.0085 -1.71859,-0.758587 -2.50754,-1.887958 -2.69714,-3.860788 -0.14699,-1.529637 -0.0302,-1.95485 0.81025,-2.953632 0.98065,-1.16548 2.25697,-1.795587 3.55473,-1.799933 z"
         style="fill:#000000;fill-opacity:1;stroke-width:1.40542"
         id="path7" /></g></g></svg>
