<?xml version="1.0" encoding="UTF-8" standalone="no"?>
<!-- Created with Inkscape (http://www.inkscape.org/) -->

<svg
   width="1024"
   height="1024"
   viewBox="0 0 1024 1024"
   version="1.1"
   id="svg1"
   xml:space="preserve"
   inkscape:export-filename="bitmap.svg"
   inkscape:export-xdpi="96"
   inkscape:export-ydpi="96"
   xmlns:inkscape="http://www.inkscape.org/namespaces/inkscape"
   xmlns:sodipodi="http://sodipodi.sourceforge.net/DTD/sodipodi-0.dtd"
   xmlns:xlink="http://www.w3.org/1999/xlink"
   xmlns="http://www.w3.org/2000/svg"
   xmlns:svg="http://www.w3.org/2000/svg"><sodipodi:namedview
   id="namedview1"
   pagecolor="#ffffff"
   bordercolor="#000000"
   borderopacity="0.25"
   inkscape:showpageshadow="2"
   inkscape:pageopacity="0.0"
   inkscape:pagecheckerboard="0"
   inkscape:deskcolor="#d1d1d1"
   inkscape:document-units="mm"
   showguides="true"><sodipodi:guide
     position="175.78402,49.668204"
     orientation="1,0"
     id="guide4"
     inkscape:locked="false" /><inkscape:page
     x="0"
     y="0"
     width="1024"
     height="1024"
     id="page18"
     margin="0"
     bleed="0" /></sodipodi:namedview><defs
   id="defs1"><linearGradient
     id="linearGradient17"
     inkscape:collect="always"><stop
       style="stop-color:#f64310;stop-opacity:1;"
       offset="0"
       id="stop17" /><stop
       style="stop-color:#f5e931;stop-opacity:1;"
       offset="1"
       id="stop18" /></linearGradient><linearGradient
     inkscape:collect="always"
     xlink:href="#linearGradient17"
     id="linearGradient18"
     x1="83.92495"
     y1="113.24136"
     x2="132.02798"
     y2="113.24136"
     gradientUnits="userSpaceOnUse"
     gradientTransform="translate(116.09744,-170.89664)" /></defs><rect
   style="fill:#bedffe;fill-opacity:1;stroke:none;stroke-width:18.8976;stroke-linecap:round;stroke-dasharray:none;stroke-opacity:1;paint-order:markers fill stroke"
   id="rect20"
   width="1024"
   height="1024"
   x="0"
   y="0" />

<g
   id="g20"
   transform="matrix(3.7133796,0,0,3.7133796,-164.90755,-87.310067)"><g
     id="g1"
     transform="matrix(2.1166666,0,0,2.1166667,69.918941,44.233605)"
     style="fill:#ff9d0c;fill-opacity:1;stroke:none;stroke-width:2.3622;stroke-dasharray:none;stroke-opacity:1">
	<path
   d="m 50,10.417 c -15.581,0 -28.201,12.627 -28.201,28.201 0,6.327 2.083,12.168 5.602,16.873 l 22.614,34.093999 c 0,0 17.2644,-25.810178 22.46,-33.934999 3.592,-4.733 5.726,-10.632 5.726,-17.032 C 78.201,23.044 65.581,10.417 50,10.417 Z"
   id="path1-5"
   sodipodi:nodetypes="sscccss"
   style="fill:#ff9d0c;fill-opacity:1;stroke:none;stroke-width:2.3622;stroke-dasharray:none;stroke-opacity:1" />
</g><path
     id="path6"
     style="fill:#ff7901;stroke-width:6.19845;stroke-linecap:round;paint-order:markers fill stroke"
     d="m 208.09873,75.065082 c 0,0 -18.21738,24.34049 -40.46098,19.79915 -38.98985,-7.96032 -48.37988,8.129508 -48.37988,8.129508 0,0 17.46708,-25.463113 29.59837,-30.324911 32.74669,-13.123734 59.24249,2.396253 59.24249,2.396253 z"
     sodipodi:nodetypes="cscsc" /><path
     id="ellipse7"
     style="fill:#fdce0f;fill-opacity:1;stroke-width:7.80281;stroke-linecap:round;paint-order:markers fill stroke"
     d="m 229.82641,151.27859 -54.04239,82.5766 -56.52615,-88.55277 c 0,0 19.68235,-9.8614 71.37725,-12.29851 65.50972,-3.08839 39.19129,18.27468 39.19129,18.27468 z"
     sodipodi:nodetypes="cccsc" /><path
     id="path12"
     style="fill:#f5e931;fill-opacity:1;stroke-width:7.10448;stroke-linecap:round;paint-order:markers fill stroke"
     d="m 229.82641,151.27859 -54.04239,82.5766 -54.09156,-82.78131 c 0,0 4.93173,-7.59687 56.53704,-11.24886 59.71488,-4.22589 51.59691,11.45357 51.59691,11.45357 z"
     sodipodi:nodetypes="cccsc" /><circle
     style="fill:url(#linearGradient18);stroke:none;stroke-width:2.58864;stroke-linecap:round;stroke-dasharray:none;stroke-opacity:1;paint-order:markers fill stroke"
     id="circle7"
     cx="224.07391"
     cy="-57.65527"
     r="24.051521"
     transform="rotate(53.853098)" /><path
     id="path13"
     style="fill:#f3450e;fill-opacity:1;stroke-width:5.27462;stroke-linecap:round;paint-order:markers fill stroke"
     d="m 208.09873,75.065082 c 0,0 -18.21738,15.510714 -40.46098,12.22219 -38.98985,-5.764311 -42.56826,7.847331 -42.56826,7.847331 0,0 11.65546,-20.399125 23.78675,-23.919702 32.74669,-9.503298 59.24249,3.850181 59.24249,3.850181 z"
     sodipodi:nodetypes="cscsc" /><path
     style="fill:#000000;stroke-width:2.19179"
     d="m 134.53748,167.3648 c 3.8427,-2.39241 5.89331,-3.49451 7.71183,-4.14468 1.73939,-0.62187 3.30643,-3.50251 3.30643,-6.07806 0,-0.80763 0.20668,-1.46841 0.45918,-1.46841 0.25253,0 1.61166,1.17431 3.02027,2.60958 1.40861,1.43529 2.71155,2.60959 2.89537,2.60959 0.18388,0 0.96859,-1.69624 1.74391,-3.7694 0.7753,-2.07318 1.54094,-3.7694 1.70143,-3.7694 0.16044,0 1.66739,1.35854 3.34868,3.01893 l 3.05693,3.01897 2.03754,-1.97485 2.03753,-1.97486 2.19707,2.14541 c 1.20841,1.17997 2.31666,2.14538 2.46278,2.14538 0.14613,0 0.0904,-3.34418 -0.12434,-7.43152 -0.67738,-12.91053 -3.07133,-23.8054 -7.00573,-31.88308 -1.72116,-3.53375 -1.83512,-3.63786 -3.57032,-3.26238 -4.81207,1.04131 -10.53066,7.90616 -13.97068,16.77105 -0.37573,0.96828 -0.53799,0.77673 -0.98251,-1.15982 -1.0613,-4.62369 0.81212,-11.08632 4.71057,-16.24979 1.29866,-1.72006 2.36121,-3.29757 2.36121,-3.50559 0,-0.208 -1.89196,-0.27885 -4.20434,-0.15737 -5.14336,0.2702 -8.50279,1.78435 -12.92394,5.82505 l -3.16852,2.89585 v -1.77616 c 0,-2.82182 2.27325,-8.14352 4.56433,-10.68517 2.21554,-2.45782 6.90609,-5.00903 9.35347,-5.08741 3.63514,-0.11638 3.76015,-0.65218 0.94442,-4.047711 -1.44401,-1.741327 -3.42078,-3.687955 -4.39286,-4.325873 -0.97207,-0.637895 -1.76815,-1.390422 -1.76907,-1.672264 -9.2e-4,-0.281862 2.54268,-0.381215 5.65245,-0.220777 6.41972,0.331178 9.8884,1.47965 11.98138,3.967014 l 1.39371,1.656349 0.84869,-1.285259 c 3.2073,-4.857161 8.10119,-7.367188 14.33671,-7.35316 l 4.3493,0.0087 -3.46633,1.869239 c -3.52275,1.89968 -8.8958,6.517739 -8.28915,7.124402 0.18303,0.183015 1.71079,-0.07627 3.39487,-0.576438 5.67006,-1.683813 12.17082,-1.15441 19.04934,1.551338 l 3.14988,1.23906 -6.18257,1.29587 c -6.24145,1.30823 -10.84555,3.2885 -10.84555,4.66481 0,0.41151 0.84814,1.1767 1.88472,1.70043 3.32862,1.68179 7.93022,5.42996 8.85002,7.20863 0.49126,0.95005 0.75274,1.72737 0.58104,1.72737 -0.17161,0 -2.20084,-0.53359 -4.50917,-1.18573 -4.41242,-1.24658 -14.3454,-2.22304 -14.3454,-1.41024 0,0.26141 0.65088,2.10218 1.44637,4.09061 2.79655,6.99036 7.25226,27.11382 7.25226,32.75383 0,1.14164 0.69089,2.46724 2.09715,4.02382 1.15345,1.27671 2.29681,2.32131 2.54077,2.32131 0.244,0 1.41359,-2.25786 2.59909,-5.01747 6.46796,-15.0559 10.51292,-30.10654 12.83428,-47.75421 1.30107,-9.891136 1.53059,-33.136568 0.33897,-34.328107 -1.41104,-1.410936 -6.9514,-0.815451 -11.71164,1.258785 -6.73396,2.93429 -13.89886,7.044448 -16.41726,9.417817 l -2.28609,2.154454 0.27816,-2.467705 c 0.68011,-6.033906 5.68937,-11.8677 13.23643,-15.41514 l 4.67889,-2.199277 -3.94939,-0.372954 c -9.62489,-0.908931 -20.48643,-0.145748 -24.03363,1.688483 -1.48634,0.768612 -1.66234,0.763987 -1.66234,-0.04384 0,-1.631824 1.56647,-4.607034 3.26307,-6.197499 3.77436,-3.538323 13.0682,-6.284186 24.17329,-7.141983 l 5.10987,-0.394695 -4.52998,-2.277611 c -9.14965,-4.600349 -12.36991,-8.12997 -9.52161,-10.43638 2.75967,-2.234632 11.39437,-2.165787 16.14661,0.12865 1.51954,0.733699 4.44046,2.968417 6.49089,4.966049 3.35659,3.270136 3.79973,3.532799 4.44718,2.63612 4.1417,-5.736064 10.64553,-8.972535 19.49105,-9.69922 2.32577,-0.191124 5.37846,-0.134569 6.78372,0.125369 l 2.55506,0.472724 -3.60674,2.226191 c -3.94204,2.433162 -8.1723,6.180339 -8.1723,7.239033 0,0.44798 1.48794,0.67255 4.4943,0.67827 8.7461,0.01752 15.99408,2.764711 22.02936,8.352327 3.53143,3.269456 6.94507,7.65591 6.39,8.210978 -0.17248,0.172494 -1.25263,-0.07891 -2.4006,-0.558662 -5.75788,-2.405787 -16.9858,-4.655889 -20.11244,-4.030553 -1.49384,0.298762 -1.33096,0.459003 2.3266,2.288788 4.65083,2.326729 8.78925,6.488986 10.78402,10.846114 1.29341,2.825204 2.58266,9.19386 2.54592,12.5765 -0.0154,1.406904 -0.062,1.389764 -1.58325,-0.579901 -7.00552,-9.071033 -15.01779,-14.572336 -23.2097,-15.936063 l -2.50518,-0.417051 2.06313,2.871759 c 4.16032,5.790879 6.68508,13.522518 6.70659,20.537792 0.0175,5.549697 -0.44748,5.406618 -3.79556,-1.169139 -1.72985,-3.397502 -4.3272,-7.680394 -5.77186,-9.517544 -2.42799,-3.087626 -6.7489,-6.808107 -7.90679,-6.808107 -0.27107,0 -0.49288,2.197369 -0.49288,4.883088 0,20.71574 -4.50031,52.25572 -9.8118,68.7653 l -2.33214,7.24886 2.47412,2.48359 2.47411,2.48353 7.74685,-3.21545 c 4.26075,-1.7685 7.80622,-3.14707 7.8788,-3.06348 0.0725,0.0836 7.28856,7.37559 7.28856,7.37559 -9.38481,11.53146 -30.58326,11.984 -44.59561,12.90863 -15.74972,0.37475 -46.80096,-5.94688 -46.80096,-5.94688 z"
     id="path4"
     sodipodi:nodetypes="csssssssscccsscsssssssscsssssssscsccsscscssssssssssscsssscsscssscscssssssccsscsscsssccscscssssscccsccscc" /><path
     style="fill:#1295fe;fill-opacity:1;stroke:none;stroke-width:4.99999;stroke-linecap:round;stroke-dasharray:none;stroke-opacity:1;paint-order:markers fill stroke"
     d="m 133.23263,168.17633 c 0,0 78.36573,11.80197 90.09172,-6.15022 11.72599,-17.9522 -47.54033,71.82908 -47.54033,71.82908 z"
     id="path14"
     sodipodi:nodetypes="cscc" /><path
     id="rect15"
     style="fill:#40d9f8;stroke-width:5.75908;stroke-linecap:round;paint-order:markers fill stroke"
     d="m 187.29389,180.52318 c 3.575,15.29383 20.80484,5.95544 20.80484,5.95544 0,0 -11.96912,16.85905 -32.31471,19.00582 -17.89409,1.88809 -27.04578,-13.01991 -27.04578,-13.01991 0,0 25.2874,-26.1713 38.55565,-11.94135 z"
     sodipodi:nodetypes="ccscc" /><g
     id="g11"
     transform="matrix(2.1166666,0,0,2.1166667,69.918941,44.233605)"
     style="fill:none;fill-opacity:1;stroke:#000000;stroke-width:2.3622;stroke-dasharray:none;stroke-opacity:1">
	<path
   d="m 50,10.417 c -15.581,0 -28.201,12.627 -28.201,28.201 0,6.327 2.083,12.168 5.602,16.873 l 22.614,34.093999 c 0,0 17.2644,-25.810178 22.46,-33.934999 3.592,-4.733 5.726,-10.632 5.726,-17.032 C 78.201,23.044 65.581,10.417 50,10.417 Z"
   id="path11"
   sodipodi:nodetypes="sscccss"
   style="fill:none;fill-opacity:1;stroke:#000000;stroke-width:2.3622;stroke-dasharray:none;stroke-opacity:1" />
</g><rect
     style="fill:#000000;fill-opacity:1;stroke:none;stroke-width:4.99999;stroke-linecap:round;stroke-dasharray:none;stroke-opacity:1;paint-order:markers fill stroke"
     id="rect16"
     width="62.160362"
     height="4.509635"
     x="175.78403"
     y="233.85518" /><rect
     style="fill:#000000;fill-opacity:1;stroke:none;stroke-width:2.67926;stroke-linecap:round;stroke-dasharray:none;stroke-opacity:1;paint-order:markers fill stroke"
     id="rect17"
     width="30.446848"
     height="2.6436527"
     x="199.75053"
     y="-221.0743"
     transform="scale(1,-1)" /></g><g
   id="g19"
   transform="matrix(5.2404637,0,0,5.2404637,-1865.1394,829.02306)"><path
     d="m 528.26607,23.299869 4.63021,-15.7923172 h 5.98646 l -7.19349,20.5546842 c -0.15426,0.452173 -0.35825,0.937154 -0.61172,1.455209 -0.25374,0.529166 -0.60087,1.030816 -1.04193,1.50495 -0.44106,0.474133 -1.00859,0.859895 -1.70339,1.157552 -0.68342,0.297656 -1.5322,0.446352 -2.54635,0.446352 -0.54028,0 -0.93715,-0.02752 -1.19062,-0.08255 -0.24263,-0.04419 -0.61754,-0.126736 -1.12448,-0.24818 v -3.985154 c 0.14314,0 0.26458,0 0.36354,0 0.11033,0 0.23177,0 0.36406,0 0.59532,0 1.06918,-0.06059 1.42187,-0.182033 0.36407,-0.121179 0.6395,-0.297391 0.82709,-0.529166 0.19844,-0.231246 0.35269,-0.512498 0.46302,-0.843228 z m -1.17396,-15.7923172 3.5224,12.5180982 0.61172,5.903516 h -3.73724 L 521.12232,7.5075518 Z"
     fill="#000000"
     id="path1"
     style="stroke-width:0.264583" /><path
     d="m 519.33638,0 v 25.399999 h -5.58906 V 0 Z"
     fill="#000000"
     id="path2"
     style="stroke-width:0.264583" /><path
     d="m 510.00982,0 v 25.399999 h -5.58906 V 0 Z"
     fill="#000000"
     id="path3"
     style="stroke-width:0.264583" /><path
     d="m 494.33325,25.730728 c -1.4552,0 -2.7559,-0.226007 -3.9026,-0.677995 -1.14644,-0.46302 -2.11667,-1.096909 -2.91042,-1.901692 -0.78263,-0.804783 -1.3835,-1.730825 -1.80234,-2.778125 -0.40799,-1.0473 -0.61171,-2.155243 -0.61171,-3.323828 v -0.628386 c 0,-1.311883 0.18176,-2.524574 0.54557,-3.63802 0.3638,-1.124479 0.90408,-2.105634 1.62057,-2.9434897 0.71649,-0.837856 1.61502,-1.4882812 2.69531,-1.951302 1.08056,-0.4740539 2.33733,-0.7110677 3.77031,-0.7110677 1.26789,0 2.40348,0.2039408 3.40678,0.611849 1.00303,0.4079081 1.85208,0.9921874 2.54635,1.7528645 0.70564,0.7606769 1.24036,1.6812149 1.60417,2.7615879 0.37491,1.080374 0.56224,2.293065 0.56224,3.638021 v 2.265495 h -14.61823 v -3.489193 h 9.17786 v -0.429948 c 0.0109,-0.595312 -0.0939,-1.102439 -0.31432,-1.521354 -0.20955,-0.418914 -0.51806,-0.738637 -0.92604,-0.959114 -0.40799,-0.220478 -0.90408,-0.330729 -1.48828,-0.330729 -0.60643,0 -1.10782,0.132291 -1.50469,0.396875 -0.38603,0.264583 -0.68924,0.628385 -0.90964,1.091406 -0.20955,0.451987 -0.35824,0.975651 -0.44661,1.570963 -0.0881,0.595313 -0.1323,1.223698 -0.1323,1.885156 v 0.628386 c 0,0.661458 0.0884,1.262274 0.26459,1.802474 0.18759,0.540199 0.45217,1.00322 0.79375,1.389062 0.35295,0.374835 0.77179,0.666962 1.25677,0.876432 0.49636,0.209471 1.05833,0.314193 1.68698,0.314193 0.76041,0 1.51024,-0.143325 2.24896,-0.429948 0.73845,-0.286623 1.37239,-0.760677 1.90156,-1.422135 l 2.53021,3.009635 c -0.36407,0.518134 -0.88212,1.019757 -1.55469,1.504818 -0.66146,0.48506 -1.45521,0.881935 -2.38125,1.190625 -0.92604,0.297656 -1.96215,0.446484 -3.10886,0.446484 z"
     fill="#000000"
     id="path4-7"
     style="stroke-width:0.264583" /><path
     d="M 474.85357,21.580077 478.3757,7.5075518 h 5.87058 l -5.85417,17.8924472 h -3.47239 z m -2.08386,-14.0725252 3.47292,14.0725252 -0.0333,3.819922 h -3.48906 L 466.88273,7.5075518 Z"
     fill="#000000"
     id="path5"
     style="stroke-width:0.264583" /><path
     d="m 459.97076,20.902082 v -7.37526 c 0,-0.507126 -0.0717,-0.942578 -0.21511,-1.30638 -0.1434,-0.363802 -0.36936,-0.644922 -0.67812,-0.843359 -0.30851,-0.209471 -0.72205,-0.314193 -1.24011,-0.314193 -0.41883,0 -0.77708,0.07165 -1.075,0.214974 -0.29739,0.143325 -0.52361,0.358299 -0.67786,0.644922 -0.15425,0.286623 -0.23151,0.650425 -0.23151,1.091406 h -5.57292 c 0,-0.826823 0.18203,-1.593003 0.54584,-2.298567 0.37491,-0.7165715 0.90408,-1.3394535 1.5875,-1.8686202 0.69453,-0.5291666 1.52135,-0.9370747 2.48046,-1.2236978 0.97023,-0.2976563 2.05053,-0.4464844 3.24115,-0.4464844 1.42214,0 2.69002,0.2370138 3.80339,0.7110677 1.12447,0.4740539 2.01189,1.1851216 2.6625,2.1332027 0.65034,0.937075 0.97552,2.116667 0.97552,3.538802 v 7.325651 c 0,1.168585 0.0661,2.056024 0.19843,2.66237 0.1323,0.595312 0.31962,1.118975 0.56224,1.570963 v 0.28112 h -5.58932 c -0.26458,-0.551206 -0.46302,-1.223698 -0.59531,-2.017448 -0.12118,-0.804783 -0.18177,-1.631606 -0.18177,-2.480469 z m 0.67786,-6.432682 0.0331,2.976563 h -2.46406 c -0.51805,0 -0.95885,0.07165 -1.32292,0.214974 -0.35269,0.143325 -0.63923,0.341762 -0.85989,0.595312 -0.20929,0.242544 -0.36354,0.518134 -0.46302,0.826823 -0.0881,0.308689 -0.13229,0.633889 -0.13229,0.975651 0,0.330729 0.0772,0.628386 0.23177,0.892969 0.1651,0.25355 0.38576,0.451988 0.66146,0.595312 0.27543,0.143325 0.5842,0.214974 0.92604,0.214974 0.61727,0 1.14088,-0.115755 1.57083,-0.347265 0.44106,-0.242544 0.77708,-0.53467 1.00886,-0.876433 0.23124,-0.341762 0.34713,-0.661458 0.34713,-0.959114 l 1.2237,2.282031 c -0.2204,0.440981 -0.47413,0.887465 -0.76068,1.339453 -0.27569,0.451988 -0.62283,0.870929 -1.04193,1.256771 -0.40772,0.374835 -0.90937,0.683498 -1.50468,0.926041 -0.59532,0.231511 -1.31736,0.347266 -2.16615,0.347266 -1.10252,0 -2.11666,-0.226007 -3.0427,-0.677995 -0.9152,-0.451987 -1.64836,-1.080373 -2.19949,-1.885156 -0.55112,-0.81579 -0.82682,-1.752864 -0.82682,-2.811198 0,-0.926041 0.16537,-1.752864 0.49609,-2.480468 0.34185,-0.727604 0.85434,-1.344957 1.53803,-1.852084 0.68342,-0.507126 1.55416,-0.892968 2.61249,-1.157552 1.05834,-0.264583 2.30426,-0.396875 3.73751,-0.396875 z"
     fill="#000000"
     id="path6-0"
     style="stroke-width:0.264583" /><path
     d="m 443.96347,11.939322 v 13.460677 h -5.57292 V 7.5075518 h 5.20885 z m 5.29166,-4.5640619 -0.0995,5.1759109 c -0.2204,-0.02204 -0.51805,-0.04961 -0.8927,-0.08268 -0.37492,-0.03307 -0.68924,-0.04961 -0.94271,-0.04961 -0.65035,0 -1.21259,0.07718 -1.68672,0.23151 -0.46302,0.143325 -0.84879,0.363802 -1.15755,0.661458 -0.29766,0.286624 -0.51806,0.650426 -0.66146,1.091407 -0.13229,0.440981 -0.19288,0.953611 -0.18177,1.53789 l -1.00886,-0.661458 c 0,-1.201658 0.11563,-2.293064 0.3474,-3.274219 0.24236,-0.992187 0.5842,-1.84658 1.025,-2.5631507 0.44106,-0.7276041 0.97578,-1.2843403 1.60416,-1.6701822 0.62839,-0.396875 1.33403,-0.5953125 2.11667,-0.5953125 0.2757,0 0.54584,0.016536 0.81042,0.049609 0.27543,0.033073 0.51805,0.082682 0.7276,0.1488281 z"
     fill="#000000"
     id="path7"
     style="stroke-width:0.264583" /><path
     d="M 429.99003,1.3229166 V 25.399999 h -5.80417 V 1.3229166 Z m 7.24297,0 v 4.48138 h -20.12474 v -4.48138 z"
     fill="#000000"
     id="path8"
     style="stroke-width:0.264583" /><path
     d="m 404.6067,10.947135 v 21.33203 h -5.57292 V 7.5075518 h 5.19245 z m 10.98021,5.291666 v 0.347266 c 0,1.300877 -0.14896,2.508038 -0.44662,3.621484 -0.29766,1.113446 -0.73872,2.083594 -1.32292,2.910417 -0.5842,0.826823 -1.3118,1.471745 -2.18281,1.934765 -0.8599,0.451988 -1.85764,0.677995 -2.99297,0.677995 -1.06944,0 -1.98993,-0.237014 -2.76172,-0.711068 -0.77179,-0.474054 -1.41658,-1.129982 -1.93463,-1.967838 -0.51832,-0.837856 -0.93715,-1.796971 -1.25677,-2.877344 -0.31988,-1.080373 -0.57335,-2.221388 -0.76094,-3.423046 v -0.446485 c 0.18759,-1.289843 0.44106,-2.485972 0.76094,-3.588411 0.31962,-1.113446 0.73845,-2.083594 1.25677,-2.9104166 0.51805,-0.8268229 1.15729,-1.4717447 1.91823,-1.9347656 0.77152,-0.4630208 1.69201,-0.6945312 2.76145,-0.6945312 1.1356,0 2.13334,0.214974 2.99324,0.6449219 0.87074,0.4299479 1.59834,1.0473001 2.18281,1.8520832 0.59531,0.7937503 1.04166,1.7473613 1.33932,2.8608073 0.29766,1.113446 0.44662,2.348177 0.44662,3.704166 z m -5.57292,0.347266 v -0.347266 c 0,-0.694531 -0.0495,-1.32842 -0.14896,-1.901692 -0.099,-0.58428 -0.25903,-1.091406 -0.47943,-1.521354 -0.20955,-0.429948 -0.49054,-0.760677 -0.84349,-0.992188 -0.35269,-0.23151 -0.78819,-0.347265 -1.30625,-0.347265 -0.59531,0 -1.09696,0.09371 -1.50468,0.281119 -0.39688,0.176398 -0.71676,0.451988 -0.95938,0.826823 -0.23125,0.363802 -0.39688,0.82132 -0.49583,1.372526 -0.0884,0.5402 -0.127,1.174089 -0.11589,1.901693 v 1.355989 c -0.022,0.837856 0.0606,1.576467 0.24818,2.215886 0.18732,0.628385 0.5125,1.118976 0.97552,1.471744 0.46302,0.352769 1.0914,0.529167 1.88515,0.529167 0.52917,0 0.97023,-0.121258 1.32292,-0.363802 0.35269,-0.25355 0.63394,-0.600816 0.84349,-1.041797 0.20929,-0.451987 0.35825,-0.970147 0.44636,-1.554427 0.0881,-0.584279 0.13229,-1.212665 0.13229,-1.885156 z"
     fill="#000000"
     id="path9"
     style="stroke-width:0.264583" /><path
     d="m 375.37011,23.217187 4.79557,-21.8942704 h 2.86081 l 1.55442,1.8686197 -5.10976,22.2084627 h -3.15846 z m -1.27331,-21.8942704 4.05143,22.0596344 -1.04179,2.017448 h -3.65456 L 368.34211,1.3229166 Z m 13.11341,21.9438794 4.01836,-21.9438794 h 5.73802 l -5.10963,24.0770824 h -3.63802 z m -2.11667,-21.9438794 4.91133,22.0265614 -0.99218,2.050521 h -3.15847 L 380.6287,3.1584634 382.24927,1.3229166 Z"
     fill="#000000"
     id="path10"
     style="stroke-width:0.264583" /></g></svg>
